<svg width="74" height="32" viewBox="0 0 74 32" fill="none" xmlns="http://www.w3.org/2000/svg">
<rect x="1.5" y="4.5" width="28" height="23" stroke="#17335E" stroke-width="3"/>
<path d="M35.0596 13V3.04688H38.4023C39.7376 3.04688 40.8564 3.45703 41.7588 4.27734C42.6657 5.0931 43.1191 6.23698 43.1191 7.70898V8.33105C43.1191 9.80306 42.6657 10.9492 41.7588 11.7695C40.8564 12.5898 39.7376 13 38.4023 13H35.0596ZM37.1445 11.4346H38.3682C39.1475 11.4346 39.7764 11.1771 40.2549 10.6621C40.738 10.1471 40.9795 9.38379 40.9795 8.37207V7.66797C40.9795 6.66081 40.738 5.89974 40.2549 5.38477C39.7764 4.86979 39.1475 4.6123 38.3682 4.6123H37.1445V11.4346ZM44.4863 8.33105V7.70898C44.4863 6.12305 44.901 4.91536 45.7305 4.08594C46.5599 3.25651 47.6309 2.8418 48.9434 2.8418C50.2513 2.8418 51.3245 3.25651 52.1631 4.08594C53.0016 4.91536 53.4209 6.12305 53.4209 7.70898V8.33105C53.4209 9.91699 53.0016 11.1247 52.1631 11.9541C51.3245 12.7835 50.2513 13.1982 48.9434 13.1982C47.6309 13.1982 46.5599 12.7835 45.7305 11.9541C44.901 11.1247 44.4863 9.91699 44.4863 8.33105ZM46.6328 8.52246C46.6328 9.55697 46.8402 10.3271 47.2549 10.833C47.6742 11.3389 48.237 11.5918 48.9434 11.5918C49.6497 11.5918 50.2148 11.3389 50.6387 10.833C51.0625 10.3271 51.2744 9.55697 51.2744 8.52246V7.52441C51.2744 6.48991 51.0625 5.71973 50.6387 5.21387C50.2148 4.70801 49.6497 4.45508 48.9434 4.45508C48.237 4.45508 47.6742 4.70801 47.2549 5.21387C46.8402 5.71973 46.6328 6.48991 46.6328 7.52441V8.52246ZM54.7812 8.33105V7.70898C54.7812 6.11849 55.1914 4.91081 56.0117 4.08594C56.832 3.25651 57.903 2.8418 59.2246 2.8418C60.4779 2.8418 61.4714 3.16992 62.2051 3.82617C62.9388 4.48242 63.3057 5.32324 63.3057 6.34863V6.5127H61.1934V6.32129C61.1934 5.72428 61.0293 5.264 60.7012 4.94043C60.373 4.61686 59.874 4.45508 59.2041 4.45508C58.5251 4.45508 57.9759 4.68978 57.5566 5.15918C57.1419 5.62858 56.9346 6.40332 56.9346 7.4834V8.55664C56.9346 9.55924 57.1374 10.3158 57.543 10.8262C57.9531 11.3366 58.516 11.5918 59.2314 11.5918C59.8695 11.5918 60.3457 11.4209 60.6602 11.0791C60.9792 10.7327 61.1546 10.277 61.1865 9.71191L61.1934 9.53418H63.3057V9.71191C63.2601 10.7236 62.8818 11.5576 62.1709 12.2139C61.46 12.8701 60.4779 13.1982 59.2246 13.1982C57.8984 13.1982 56.8252 12.7812 56.0049 11.9473C55.1891 11.1133 54.7812 9.90788 54.7812 8.33105ZM64.7412 13V3.04688H66.8398V7.15527L70.4697 3.04688H72.7461L66.8398 9.58887V13H64.7412ZM70.7158 13L67.209 8.21484L68.5557 6.71094L73.2656 13H70.7158ZM37.3428 29V25.4727L33.8838 19.0469H36.208L38.1357 22.7588C38.1995 22.8864 38.2565 23.0117 38.3066 23.1348C38.3568 23.2578 38.4046 23.3809 38.4502 23.5039H38.498C38.5391 23.3809 38.5846 23.2601 38.6348 23.1416C38.6849 23.0186 38.7441 22.891 38.8125 22.7588L40.7744 19.0469H42.8184L39.4414 25.3633V29H37.3428ZM42.1963 29L45.9766 18.999H48.1777L52.0264 29H49.7705L47.207 21.959C47.1523 21.8086 47.109 21.6628 47.0771 21.5215C47.0452 21.3802 47.0156 21.2367 46.9883 21.0908H46.9268C46.904 21.2367 46.8743 21.3802 46.8379 21.5215C46.806 21.6628 46.7627 21.8086 46.708 21.959L44.1445 29H42.1963ZM44.3428 26.8057L44.8281 25.2471H49.2236L49.709 26.8057H44.3428ZM52.9014 29V19.0469H56.5312C57.6934 19.0469 58.598 19.3226 59.2451 19.874C59.8968 20.4209 60.2227 21.1911 60.2227 22.1846C60.2227 23.1872 59.8945 23.971 59.2383 24.5361C58.5866 25.1012 57.682 25.3838 56.5244 25.3838H55V29H52.9014ZM55 23.8389H56.4561C57.0667 23.8389 57.4974 23.693 57.748 23.4014C57.9987 23.1051 58.1263 22.7064 58.1309 22.2051C58.1309 21.7083 58.0033 21.3187 57.748 21.0361C57.4974 20.749 57.0667 20.6055 56.4561 20.6055H55V23.8389ZM58.3496 29L56.0049 24.4062L58.2197 24.3105L60.6943 29H58.3496ZM61.8564 29V19.0469H65.1992C66.5345 19.0469 67.6533 19.457 68.5557 20.2773C69.4626 21.0931 69.916 22.237 69.916 23.709V24.3311C69.916 25.8031 69.4626 26.9492 68.5557 27.7695C67.6533 28.5898 66.5345 29 65.1992 29H61.8564ZM63.9414 27.4346H65.165C65.9443 27.4346 66.5732 27.1771 67.0518 26.6621C67.5348 26.1471 67.7764 25.3838 67.7764 24.3721V23.668C67.7764 22.6608 67.5348 21.8997 67.0518 21.3848C66.5732 20.8698 65.9443 20.6123 65.165 20.6123H63.9414V27.4346Z" fill="#17335E"/>
</svg>
